<svg width="28" height="28" viewBox="0 0 28 28" fill="none" xmlns="http://www.w3.org/2000/svg">
<path fill-rule="evenodd" clip-rule="evenodd" d="M20.4167 3.85H7.58333C5.52147 3.85 3.85 5.52147 3.85 7.58333V20.4167C3.85 22.4785 5.52147 24.15 7.58333 24.15H20.4167C22.4785 24.15 24.15 22.4785 24.15 20.4167V7.58333C24.15 5.52147 22.4785 3.85 20.4167 3.85ZM7.58333 1.75C4.36167 1.75 1.75 4.36167 1.75 7.58333V20.4167C1.75 23.6383 4.36167 26.25 7.58333 26.25H20.4167C23.6383 26.25 26.25 23.6383 26.25 20.4167V7.58333C26.25 4.36167 23.6383 1.75 20.4167 1.75H7.58333Z" fill="#FAFAFA"/>
<path fill-rule="evenodd" clip-rule="evenodd" d="M14 7.65625C13.5393 7.65625 13.1658 8.02972 13.1658 8.49041V13.1658H8.49041C8.02972 13.1658 7.65625 13.5393 7.65625 14C7.65625 14.4607 8.02972 14.8342 8.49041 14.8342H13.1658V19.5096C13.1658 19.9703 13.5393 20.3438 14 20.3438C14.4607 20.3438 14.8342 19.9703 14.8342 19.5096V14.8342H19.5096C19.9703 14.8342 20.3438 14.4607 20.3438 14C20.3438 13.5393 19.9703 13.1658 19.5096 13.1658H14.8342V8.49041C14.8342 8.02972 14.4607 7.65625 14 7.65625Z" fill="#FAFAFA"/>
</svg>
